<svg width="48" height="48" viewBox="0 0 48 48" fill="none" xmlns="http://www.w3.org/2000/svg">
<g clip-path="url(#clip0_0_101)">
<path fill-rule="evenodd" clip-rule="evenodd" d="M24.4999 1.99973C36.9264 1.99973 46.9999 12.0733 46.9999 24.4997C46.9999 36.9262 36.9264 46.9998 24.4999 46.9998C12.0735 46.9998 1.99992 36.9262 1.99992 24.4997C1.99992 12.0733 12.0735 1.99973 24.4999 1.99973Z" fill="#0088FF"/>
<path d="M32.432 25.748H26.944L28.992 23.7C29.056 23.6253 29.088 23.54 29.088 23.444C29.088 23.348 29.056 23.2627 28.992 23.188L28.128 22.34C28.0533 22.2653 27.968 22.228 27.872 22.228C27.776 22.228 27.6907 22.2653 27.616 22.34L23.312 26.644C23.2373 26.7187 23.2 26.804 23.2 26.9C23.2 26.996 23.2373 27.0813 23.312 27.156L27.616 31.46C27.6907 31.5347 27.776 31.572 27.872 31.572C27.968 31.572 28.0533 31.5347 28.128 31.46L28.992 30.612C29.056 30.5373 29.088 30.452 29.088 30.356C29.088 30.26 29.056 30.1747 28.992 30.1L26.8 27.908H32.432C32.5387 27.908 32.624 27.876 32.688 27.812C32.7627 27.7373 32.8 27.6467 32.8 27.54V26.1C32.8 26.004 32.7627 25.924 32.688 25.86C32.624 25.7853 32.5387 25.748 32.432 25.748Z" fill="white"/>
</g>
<defs>
<clipPath id="clip0_0_101">
<rect width="48" height="48" fill="white"/>
</clipPath>
</defs>
</svg>
