<svg width="48" height="48" viewBox="0 0 48 48" fill="none" xmlns="http://www.w3.org/2000/svg">
<g clip-path="url(#clip0_0_98)">
<path fill-rule="evenodd" clip-rule="evenodd" d="M24.5 1.99951C36.9263 1.99951 47 12.0731 47 24.4995C47 36.9259 36.9263 46.9996 24.5 46.9996C12.0736 46.9996 2 36.9259 2 24.4995C2 12.0731 12.0736 1.99951 24.5 1.99951Z" fill="#FF9000"/>
<path d="M6.568 21.252H12.056L10.008 23.3C9.944 23.3747 9.912 23.46 9.912 23.556C9.912 23.652 9.944 23.7373 10.008 23.812L10.872 24.66C10.9467 24.7347 11.032 24.772 11.128 24.772C11.224 24.772 11.3093 24.7347 11.384 24.66L15.688 20.356C15.7627 20.2813 15.8 20.196 15.8 20.1C15.8 20.004 15.7627 19.9187 15.688 19.844L11.384 15.54C11.3093 15.4653 11.224 15.428 11.128 15.428C11.032 15.428 10.9467 15.4653 10.872 15.54L10.008 16.388C9.944 16.4627 9.912 16.548 9.912 16.644C9.912 16.74 9.944 16.8253 10.008 16.9L12.2 19.092H6.568C6.46133 19.092 6.376 19.124 6.312 19.188C6.23733 19.2627 6.2 19.3533 6.2 19.46V20.9C6.2 20.996 6.23733 21.076 6.312 21.14C6.376 21.2147 6.46133 21.252 6.568 21.252Z" fill="white"/>
</g>
<defs>
<clipPath id="clip0_0_98">
<rect width="48" height="48" fill="white"/>
</clipPath>
</defs>
</svg>
