<svg width="18" height="14" viewBox="0 0 18 14" fill="none" xmlns="http://www.w3.org/2000/svg">
<path d="M9.46 11.38C9.32667 11.4733 9.17333 11.52 9 11.52C8.82667 11.52 8.68 11.4733 8.56 11.38L0.7 5.78C0.58 5.7 0.473333 5.68667 0.38 5.74C0.3 5.78 0.26 5.87333 0.26 6.02V14.98C0.26 15.14 0.313333 15.2733 0.42 15.38C0.526667 15.4867 0.653333 15.54 0.8 15.54H17.2C17.3467 15.54 17.4733 15.4867 17.58 15.38C17.7 15.2733 17.76 15.14 17.76 14.98V6.02C17.76 5.87333 17.7133 5.78 17.62 5.74C17.5267 5.68667 17.42 5.7 17.3 5.78L9.46 11.38ZM8.7 10.4C8.80667 10.4667 8.90667 10.5 9 10.5C9.10667 10.5 9.20667 10.4667 9.3 10.4L15.9 5.7C16.0467 5.58 16.12 5.44 16.12 5.28V0.979999C16.12 0.833333 16.0667 0.713333 15.96 0.619999C15.8667 0.513332 15.7467 0.459999 15.6 0.459999H2.4C2.25333 0.459999 2.13333 0.513332 2.04 0.619999C1.94667 0.713333 1.9 0.833333 1.9 0.979999V5.28C1.9 5.46667 1.96667 5.60667 2.1 5.7L8.7 10.4ZM4.98 2.58H12.7C12.86 2.58 12.9933 2.64 13.1 2.76C13.2067 2.86667 13.26 3 13.26 3.16C13.26 3.30667 13.2067 3.43333 13.1 3.54C12.9933 3.64667 12.86 3.7 12.7 3.7H4.98C4.82 3.7 4.68667 3.64667 4.58 3.54C4.47333 3.43333 4.42 3.30667 4.42 3.16C4.42 3 4.47333 2.86667 4.58 2.76C4.68667 2.64 4.82 2.58 4.98 2.58ZM4.98 4.54H12.7C12.86 4.54 12.9933 4.6 13.1 4.72C13.2067 4.82667 13.26 4.95333 13.26 5.1C13.26 5.24667 13.2067 5.38 13.1 5.5C12.9933 5.60667 12.86 5.66 12.7 5.66H4.98C4.82 5.66 4.68667 5.60667 4.58 5.5C4.47333 5.39333 4.42 5.26667 4.42 5.12C4.42 4.96 4.47333 4.82667 4.58 4.72C4.68667 4.6 4.82 4.54 4.98 4.54Z" fill="#0088FF"/>
</svg>
