<svg width="64" height="64" viewBox="0 0 64 64" fill="none" xmlns="http://www.w3.org/2000/svg">
<g clip-path="url(#clip0_0_187)">
<path fill-rule="evenodd" clip-rule="evenodd" d="M32.4999 1.99994C49.3446 1.99994 63 15.655 63 32.4997C63 49.3444 49.3446 63 32.4999 63C15.6552 63 1.99987 49.3444 1.99987 32.4997C1.99987 15.655 15.6552 1.99994 32.4999 1.99994Z" fill="#FF9000"/>
<path d="M33.644 39.932C33.4573 40.0627 33.2427 40.128 33 40.128C32.7573 40.128 32.552 40.0627 32.384 39.932L21.38 32.092C21.212 31.98 21.0627 31.9613 20.932 32.036C20.82 32.092 20.764 32.2227 20.764 32.428V44.972C20.764 45.196 20.8387 45.3827 20.988 45.532C21.1373 45.6813 21.3147 45.756 21.52 45.756H44.48C44.6853 45.756 44.8627 45.6813 45.012 45.532C45.18 45.3827 45.264 45.196 45.264 44.972V32.428C45.264 32.2227 45.1987 32.092 45.068 32.036C44.9373 31.9613 44.788 31.98 44.62 32.092L33.644 39.932ZM32.58 38.56C32.7293 38.6533 32.8693 38.7 33 38.7C33.1493 38.7 33.2893 38.6533 33.42 38.56L42.66 31.98C42.8653 31.812 42.968 31.616 42.968 31.392V25.372C42.968 25.1667 42.8933 24.9987 42.744 24.868C42.6133 24.7187 42.4453 24.644 42.24 24.644H23.76C23.5547 24.644 23.3867 24.7187 23.256 24.868C23.1253 24.9987 23.06 25.1667 23.06 25.372V31.392C23.06 31.6533 23.1533 31.8493 23.34 31.98L32.58 38.56ZM27.372 27.612H38.18C38.404 27.612 38.5907 27.696 38.74 27.864C38.8893 28.0133 38.964 28.2 38.964 28.424C38.964 28.6293 38.8893 28.8067 38.74 28.956C38.5907 29.1053 38.404 29.18 38.18 29.18H27.372C27.148 29.18 26.9613 29.1053 26.812 28.956C26.6627 28.8067 26.588 28.6293 26.588 28.424C26.588 28.2 26.6627 28.0133 26.812 27.864C26.9613 27.696 27.148 27.612 27.372 27.612ZM27.372 30.356H38.18C38.404 30.356 38.5907 30.44 38.74 30.608C38.8893 30.7573 38.964 30.9347 38.964 31.14C38.964 31.3453 38.8893 31.532 38.74 31.7C38.5907 31.8493 38.404 31.924 38.18 31.924H27.372C27.148 31.924 26.9613 31.8493 26.812 31.7C26.6627 31.5507 26.588 31.3733 26.588 31.168C26.588 30.944 26.6627 30.7573 26.812 30.608C26.9613 30.44 27.148 30.356 27.372 30.356Z" fill="white"/>
</g>
<defs>
<clipPath id="clip0_0_187">
<rect width="64" height="64" fill="white"/>
</clipPath>
</defs>
</svg>
