<svg width="64" height="64" viewBox="0 0 64 64" fill="none" xmlns="http://www.w3.org/2000/svg">
<g clip-path="url(#clip0_0_182)">
<path fill-rule="evenodd" clip-rule="evenodd" d="M32.4999 1.99968C49.3446 1.99968 62.9999 15.6552 62.9999 32.4999C62.9999 49.3446 49.3446 62.9997 32.4999 62.9997C15.6552 62.9997 1.99994 49.3446 1.99994 32.4999C1.99994 15.6552 15.6552 1.99968 32.4999 1.99968Z" fill="#0088FF"/>
<path d="M37.228 40.66C37.0227 40.66 36.8827 40.5853 36.808 40.436C36.696 40.212 36.6213 40.0533 36.584 39.96C36.5467 39.848 36.4627 39.7173 36.332 39.568C36.2013 39.4187 36.052 39.3533 35.884 39.372C35.7347 39.3907 35.604 39.484 35.492 39.652C35.4173 39.764 35.3427 39.96 35.268 40.24L35.184 40.604C35.128 40.8653 35.072 41.052 35.016 41.164L34.988 41.192C34.9693 41.2293 34.9413 41.248 34.904 41.248C34.8667 41.248 34.848 41.2107 34.848 41.136C34.792 40.9493 34.736 40.66 34.68 40.268L34.596 39.568C34.5213 38.9147 34.428 38.4293 34.316 38.112L34.288 38.028C34.2133 37.8973 34.1573 37.804 34.12 37.748C33.952 37.5427 33.7467 37.4867 33.504 37.58L33.476 37.608C33.4573 37.608 33.4293 37.6267 33.392 37.664L33.28 37.776C33.2053 37.888 33.1493 37.9813 33.112 38.056C33.0933 38.112 33.0653 38.2147 33.028 38.364L32.972 38.532C32.8973 38.9427 32.8227 39.5493 32.748 40.352L32.692 41.108C32.6733 41.5 32.6173 41.864 32.524 42.2C32.524 42.2747 32.5053 42.312 32.468 42.312C32.4493 42.312 32.4307 42.2933 32.412 42.256L32.384 42.228L32.216 41.64L32.104 40.996C32.0293 40.5667 31.964 40.2493 31.908 40.044C31.8333 39.764 31.74 39.5493 31.628 39.4C31.516 39.2507 31.3853 39.176 31.236 39.176C31.0867 39.1573 30.956 39.2133 30.844 39.344C30.8067 39.3813 30.76 39.4467 30.704 39.54L30.648 39.624C30.5547 39.848 30.4613 40.2027 30.368 40.688L30.34 40.912C30.3213 41.136 30.2653 41.3787 30.172 41.64C30.172 41.696 30.144 41.724 30.088 41.724C30.0693 41.724 30.06 41.7147 30.06 41.696L30.032 41.64C29.9947 41.584 29.9573 41.5 29.92 41.388L29.892 41.332C29.7987 40.9587 29.6867 40.6973 29.556 40.548C29.388 40.2867 29.1453 40.156 28.828 40.156H27.764C27.6893 40.156 27.6427 40.1653 27.624 40.184V40.688C27.6427 40.7067 27.6893 40.716 27.764 40.716H28.772C28.94 40.716 29.0707 40.7907 29.164 40.94L29.388 41.556C29.4627 41.7613 29.5467 41.9387 29.64 42.088C29.7707 42.2747 29.9293 42.368 30.116 42.368C30.3027 42.3493 30.4613 42.2467 30.592 42.06C30.6853 41.892 30.7693 41.6307 30.844 41.276L30.928 40.94C30.984 40.5293 31.04 40.2307 31.096 40.044L31.152 39.904C31.152 39.8853 31.152 39.8667 31.152 39.848C31.1707 39.8293 31.1893 39.8293 31.208 39.848C31.2267 39.848 31.2453 39.8573 31.264 39.876L31.292 39.904C31.3667 40.1467 31.4133 40.352 31.432 40.52C31.4693 40.6693 31.516 40.9027 31.572 41.22C31.6653 41.6493 31.74 41.9667 31.796 42.172C31.8333 42.3213 31.8707 42.4333 31.908 42.508C32.0013 42.788 32.1787 42.9653 32.44 43.04H32.552C32.7573 42.984 32.9067 42.8253 33 42.564C33.0933 42.3027 33.1773 41.892 33.252 41.332L33.336 40.436C33.3733 39.764 33.42 39.26 33.476 38.924C33.4947 38.756 33.5413 38.5507 33.616 38.308L33.644 38.28C33.6627 38.2427 33.6907 38.224 33.728 38.224C33.7653 38.224 33.784 38.2613 33.784 38.336C33.8587 38.504 33.9333 38.7933 34.008 39.204L34.092 39.904C34.148 40.4453 34.204 40.856 34.26 41.136C34.2973 41.3227 34.3533 41.4813 34.428 41.612C34.54 41.7987 34.68 41.9013 34.848 41.92C35.016 41.92 35.1653 41.864 35.296 41.752C35.464 41.5467 35.576 41.3227 35.632 41.08L35.884 40.156C35.884 40.0813 35.912 40.044 35.968 40.044C36.024 40.044 36.052 40.0813 36.052 40.156L36.164 40.38C36.2387 40.548 36.304 40.6693 36.36 40.744C36.5653 41.0613 36.8453 41.22 37.2 41.22C37.368 41.2013 37.6293 41.2013 37.984 41.22H38.376V40.66H37.228ZM19 42.816C19.3733 42.984 19.8773 43.2173 20.512 43.516V38.896C19.8773 39.1947 19.3733 39.428 19 39.596V42.816ZM40.952 27.332C38.208 24.9427 34.8573 24.028 30.9 24.588C29.1453 24.8493 27.5307 25.4933 26.056 26.52C24.6187 27.528 23.48 28.788 22.64 30.3C21.7627 31.8493 21.296 33.5013 21.24 35.256C21.2027 36.5813 21.1933 38.5787 21.212 41.248L21.24 44.244C21.24 44.748 21.3987 45.1587 21.716 45.476C22.052 45.7933 22.472 45.9613 22.976 45.98H25.356C25.972 45.9613 26.4387 45.7933 26.756 45.476C27.092 45.1587 27.26 44.692 27.26 44.076V38.364C27.26 37.7293 27.092 37.244 26.756 36.908C26.42 36.572 25.9347 36.404 25.3 36.404H23.2C23.1067 32.484 24.6093 29.6187 27.708 27.808C29.5373 26.7253 31.376 26.212 33.224 26.268C35.0907 26.3053 36.9107 26.9027 38.684 28.06C41.54 29.908 42.912 32.6893 42.8 36.404H42.044C41.428 36.3853 40.9613 36.3853 40.644 36.404C40.0653 36.404 39.608 36.572 39.272 36.908C38.936 37.2253 38.7587 37.6827 38.74 38.28V44.076C38.7587 44.6733 38.9267 45.1307 39.244 45.448C39.5613 45.7653 40.0093 45.9333 40.588 45.952C41.0733 45.9707 41.8107 45.98 42.8 45.98C44.1067 45.9613 44.76 45.2893 44.76 43.964V41.164C44.7787 38.6813 44.7787 36.8147 44.76 35.564C44.7413 32.2973 43.472 29.5533 40.952 27.332ZM47 39.988C47 39.7827 46.9627 39.652 46.888 39.596C46.5893 39.4093 46.1227 39.1573 45.488 38.84V43.516L45.88 43.32C46.1973 43.1333 46.4307 43.012 46.58 42.956C46.748 42.8813 46.86 42.7973 46.916 42.704C46.972 42.6107 47 42.48 47 42.312C46.9813 41.9573 46.9813 41.444 47 40.772V39.988Z" fill="white"/>
</g>
<defs>
<clipPath id="clip0_0_182">
<rect width="64" height="64" fill="white"/>
</clipPath>
</defs>
</svg>
