<svg width="20" height="17" viewBox="0 0 20 17" fill="none" xmlns="http://www.w3.org/2000/svg">
<path d="M13.02 12.9C12.8733 12.9 12.7733 12.8467 12.72 12.74C12.64 12.58 12.5867 12.4667 12.56 12.4C12.5333 12.32 12.4733 12.2267 12.38 12.12C12.2867 12.0133 12.18 11.9667 12.06 11.98C11.9533 11.9933 11.86 12.06 11.78 12.18C11.7267 12.26 11.6733 12.4 11.62 12.6L11.56 12.86C11.52 13.0467 11.48 13.18 11.44 13.26L11.42 13.28C11.4067 13.3067 11.3867 13.32 11.36 13.32C11.3333 13.32 11.32 13.2933 11.32 13.24C11.28 13.1067 11.24 12.9 11.2 12.62L11.14 12.12C11.0867 11.6533 11.02 11.3067 10.94 11.08L10.92 11.02C10.8667 10.9267 10.8267 10.86 10.8 10.82C10.68 10.6733 10.5333 10.6333 10.36 10.7L10.34 10.72C10.3267 10.72 10.3067 10.7333 10.28 10.76L10.2 10.84C10.1467 10.92 10.1067 10.9867 10.08 11.04C10.0667 11.08 10.0467 11.1533 10.02 11.26L9.98 11.38C9.92667 11.6733 9.87333 12.1067 9.82 12.68L9.78 13.22C9.76667 13.5 9.72667 13.76 9.66 14C9.66 14.0533 9.64667 14.08 9.62 14.08C9.60667 14.08 9.59333 14.0667 9.58 14.04L9.56 14.02L9.44 13.6L9.36 13.14C9.30667 12.8333 9.26 12.6067 9.22 12.46C9.16667 12.26 9.1 12.1067 9.02 12C8.94 11.8933 8.84667 11.84 8.74 11.84C8.63333 11.8267 8.54 11.8667 8.46 11.96C8.43333 11.9867 8.4 12.0333 8.36 12.1L8.32 12.16C8.25333 12.32 8.18667 12.5733 8.12 12.92L8.1 13.08C8.08667 13.24 8.04667 13.4133 7.98 13.6C7.98 13.64 7.96 13.66 7.92 13.66C7.90667 13.66 7.9 13.6533 7.9 13.64L7.88 13.6C7.85333 13.56 7.82667 13.5 7.8 13.42L7.78 13.38C7.71333 13.1133 7.63333 12.9267 7.54 12.82C7.42 12.6333 7.24667 12.54 7.02 12.54H6.26C6.20667 12.54 6.17333 12.5467 6.16 12.56V12.92C6.17333 12.9333 6.20667 12.94 6.26 12.94H6.98C7.1 12.94 7.19333 12.9933 7.26 13.1L7.42 13.54C7.47333 13.6867 7.53333 13.8133 7.6 13.92C7.69333 14.0533 7.80667 14.12 7.94 14.12C8.07333 14.1067 8.18667 14.0333 8.28 13.9C8.34667 13.78 8.40667 13.5933 8.46 13.34L8.52 13.1C8.56 12.8067 8.6 12.5933 8.64 12.46L8.68 12.36C8.68 12.3467 8.68 12.3333 8.68 12.32C8.69333 12.3067 8.70667 12.3067 8.72 12.32C8.73333 12.32 8.74667 12.3267 8.76 12.34L8.78 12.36C8.83333 12.5333 8.86667 12.68 8.88 12.8C8.90667 12.9067 8.94 13.0733 8.98 13.3C9.04667 13.6067 9.1 13.8333 9.14 13.98C9.16667 14.0867 9.19333 14.1667 9.22 14.22C9.28667 14.42 9.41333 14.5467 9.6 14.6H9.68C9.82667 14.56 9.93333 14.4467 10 14.26C10.0667 14.0733 10.1267 13.78 10.18 13.38L10.24 12.74C10.2667 12.26 10.3 11.9 10.34 11.66C10.3533 11.54 10.3867 11.3933 10.44 11.22L10.46 11.2C10.4733 11.1733 10.4933 11.16 10.52 11.16C10.5467 11.16 10.56 11.1867 10.56 11.24C10.6133 11.36 10.6667 11.5667 10.72 11.86L10.78 12.36C10.82 12.7467 10.86 13.04 10.9 13.24C10.9267 13.3733 10.9667 13.4867 11.02 13.58C11.1 13.7133 11.2 13.7867 11.32 13.8C11.44 13.8 11.5467 13.76 11.64 13.68C11.76 13.5333 11.84 13.3733 11.88 13.2L12.06 12.54C12.06 12.4867 12.08 12.46 12.12 12.46C12.16 12.46 12.18 12.4867 12.18 12.54L12.26 12.7C12.3133 12.82 12.36 12.9067 12.4 12.96C12.5467 13.1867 12.7467 13.3 13 13.3C13.12 13.2867 13.3067 13.2867 13.56 13.3H13.84V12.9H13.02ZM0 14.44C0.266667 14.56 0.626667 14.7267 1.08 14.94V11.64C0.626667 11.8533 0.266667 12.02 0 12.14V14.44ZM15.68 3.38C13.72 1.67333 11.3267 1.02 8.5 1.42C7.24667 1.60667 6.09333 2.06667 5.04 2.8C4.01333 3.52 3.2 4.42 2.6 5.5C1.97333 6.60667 1.64 7.78667 1.6 9.04C1.57333 9.98667 1.56667 11.4133 1.58 13.32L1.6 15.46C1.6 15.82 1.71333 16.1133 1.94 16.34C2.18 16.5667 2.48 16.6867 2.84 16.7H4.54C4.98 16.6867 5.31333 16.5667 5.54 16.34C5.78 16.1133 5.9 15.78 5.9 15.34V11.26C5.9 10.8067 5.78 10.46 5.54 10.22C5.3 9.98 4.95333 9.86 4.5 9.86H3C2.93333 7.06 4.00667 5.01333 6.22 3.72C7.52667 2.94667 8.84 2.58 10.16 2.62C11.4933 2.64667 12.7933 3.07333 14.06 3.9C16.1 5.22 17.08 7.20667 17 9.86H16.46C16.02 9.84667 15.6867 9.84667 15.46 9.86C15.0467 9.86 14.72 9.98 14.48 10.22C14.24 10.4467 14.1133 10.7733 14.1 11.2V15.34C14.1133 15.7667 14.2333 16.0933 14.46 16.32C14.6867 16.5467 15.0067 16.6667 15.42 16.68C15.7667 16.6933 16.2933 16.7 17 16.7C17.9333 16.6867 18.4 16.2067 18.4 15.26V13.26C18.4133 11.4867 18.4133 10.1533 18.4 9.26C18.3867 6.92667 17.48 4.96667 15.68 3.38ZM20 12.42C20 12.2733 19.9733 12.18 19.92 12.14C19.7067 12.0067 19.3733 11.8267 18.92 11.6V14.94L19.2 14.8C19.4267 14.6667 19.5933 14.58 19.7 14.54C19.82 14.4867 19.9 14.4267 19.94 14.36C19.98 14.2933 20 14.2 20 14.08C19.9867 13.8267 19.9867 13.46 20 12.98V12.42Z" fill="#0088FF"/>
</svg>
