<svg width="14" height="17" viewBox="0 0 14 17" fill="none" xmlns="http://www.w3.org/2000/svg">
<path d="M12.76 4.6C12.7333 4.50667 12.68 4.36667 12.6 4.18L12.48 3.9C12.12 3.04667 11.62 2.33333 10.98 1.76C10.4067 1.24 9.74667 0.853332 9 0.599999C8.32 0.359999 7.62667 0.239999 6.92 0.239999C6 0.239999 5.12667 0.439999 4.3 0.84C3.40667 1.26667 2.68 1.86667 2.12 2.64C1.49333 3.50667 1.11333 4.52 0.98 5.68V6.54L1 6.88C1.08 7.48 1.31333 8.16667 1.7 8.94C1.92667 9.40667 2.32667 10.1067 2.9 11.04C3.23333 11.5733 3.47333 11.9667 3.62 12.22C4.36667 13.46 5.5 15.3067 7.02 17.76L9.1 14.18C9.18 14.0333 9.3 13.8133 9.46 13.52L9.68 13.16C9.72 13.0933 9.8 12.9867 9.92 12.84C10.04 12.6933 10.12 12.5867 10.16 12.52C10.36 12.1467 10.7 11.5867 11.18 10.84C11.7933 9.86667 12.22 9.13333 12.46 8.64C12.8467 7.82667 13.04 7.1 13.04 6.46V5.64C13.04 5.54667 12.9733 5.28667 12.84 4.86L12.76 4.6ZM6.98 8.36C6.55333 8.36 6.16667 8.24667 5.82 8.02C5.42 7.76667 5.12 7.39333 4.92 6.9C4.88 6.79333 4.86667 6.61333 4.88 6.36V5.86C4.88 5.43333 4.99333 5.06 5.22 4.74C5.42 4.46 5.69333 4.24667 6.04 4.1C6.36 3.95333 6.69333 3.88 7.04 3.88C7.45333 3.88 7.82667 3.98 8.16 4.18C8.49333 4.38 8.76 4.65333 8.96 5C9.16 5.33333 9.26 5.70667 9.26 6.12C9.26 6.53333 9.15333 6.91333 8.94 7.26C8.74 7.59333 8.46667 7.86 8.12 8.06C7.77333 8.26 7.39333 8.36 6.98 8.36Z" fill="#0088FF"/>
</svg>
