<svg width="158" height="45" viewBox="0 0 158 45" fill="none" xmlns="http://www.w3.org/2000/svg">
<g clip-path="url(#clip0_0_32)">
<g clip-path="url(#clip1_0_32)">
<path d="M136 2.5C147.322 2.5 156.5 11.6782 156.5 23C156.5 34.322 147.322 43.5 136 43.5C124.678 43.5 115.5 34.322 115.5 23C115.5 11.6782 124.678 2.5 136 2.5Z" fill="#163C86" stroke="#4A6AA7"/>
<path d="M142.57 20.17C142.1 20.38 141.58 20.525 141.01 20.605C141.29 20.445 141.53 20.235 141.73 19.975C141.94 19.715 142.095 19.425 142.195 19.105C141.685 19.425 141.115 19.645 140.485 19.765C140.245 19.495 139.95 19.285 139.6 19.135C139.26 18.985 138.9 18.91 138.52 18.91C138.03 18.91 137.58 19.035 137.17 19.285C136.76 19.525 136.435 19.85 136.195 20.26C135.955 20.67 135.835 21.12 135.835 21.61C135.835 21.85 135.855 22.055 135.895 22.225C134.795 22.165 133.76 21.885 132.79 21.385C131.84 20.895 131.025 20.235 130.345 19.405C130.105 19.835 129.985 20.285 129.985 20.755C129.985 21.215 130.09 21.645 130.3 22.045C130.52 22.435 130.815 22.755 131.185 23.005C130.745 22.995 130.34 22.88 129.97 22.66V22.705C129.97 23.355 130.17 23.925 130.57 24.415C130.98 24.905 131.5 25.215 132.13 25.345C131.91 25.405 131.67 25.435 131.41 25.435C131.23 25.435 131.065 25.42 130.915 25.39C131.085 25.93 131.4 26.375 131.86 26.725C132.32 27.065 132.84 27.24 133.42 27.25C132.96 27.62 132.44 27.905 131.86 28.105C131.29 28.305 130.695 28.405 130.075 28.405C129.945 28.405 129.745 28.395 129.475 28.375H129.43C130.68 29.175 132.06 29.575 133.57 29.575C134.76 29.575 135.855 29.345 136.855 28.885C137.775 28.455 138.575 27.855 139.255 27.085C139.885 26.365 140.375 25.545 140.725 24.625C141.055 23.735 141.22 22.835 141.22 21.925V21.565C141.75 21.185 142.2 20.72 142.57 20.17Z" fill="white"/>
</g>
<g clip-path="url(#clip2_0_32)">
<path fill-rule="evenodd" clip-rule="evenodd" d="M79 1.9998C90.598 1.9998 100 11.4017 100 22.9996C100 34.5979 90.598 43.9998 79 43.9998C67.4019 43.9998 57.9999 34.5979 57.9999 22.9996C57.9999 11.4017 67.4019 1.9998 79 1.9998Z" fill="#0088FF"/>
<path d="M85.015 24.195C85.065 23.865 85.09 23.55 85.09 23.25C85.09 22.15 84.815 21.125 84.265 20.175C83.725 19.255 82.995 18.525 82.075 17.985C81.125 17.435 80.1 17.16 79 17.16C78.7 17.16 78.385 17.185 78.055 17.235C77.445 16.865 76.8 16.68 76.12 16.68C75.45 16.68 74.835 16.845 74.275 17.175C73.715 17.505 73.27 17.955 72.94 18.525C72.61 19.085 72.445 19.7 72.445 20.37C72.445 21.07 72.625 21.71 72.985 22.29C72.935 22.64 72.91 22.96 72.91 23.25C72.91 24.35 73.185 25.375 73.735 26.325C74.275 27.245 75.005 27.975 75.925 28.515C76.875 29.065 77.9 29.34 79 29.34C79.3 29.34 79.615 29.315 79.945 29.265C80.535 29.625 81.18 29.805 81.88 29.805C82.55 29.805 83.165 29.64 83.725 29.31C84.285 28.98 84.73 28.535 85.06 27.975C85.39 27.405 85.555 26.79 85.555 26.13C85.565 25.46 85.385 24.815 85.015 24.195ZM81.895 26.025C81.625 26.405 81.245 26.695 80.755 26.895C80.265 27.095 79.68 27.195 79 27.195C78.18 27.195 77.51 27.055 76.99 26.775C76.62 26.565 76.315 26.29 76.075 25.95C75.835 25.6 75.715 25.265 75.715 24.945C75.715 24.755 75.785 24.59 75.925 24.45C76.075 24.31 76.265 24.24 76.495 24.24C76.675 24.24 76.83 24.29 76.96 24.39C77.09 24.52 77.195 24.68 77.275 24.87C77.385 25.11 77.5 25.31 77.62 25.47C77.74 25.63 77.9 25.76 78.1 25.86C78.31 25.96 78.595 26.01 78.955 26.01C79.445 26.01 79.84 25.905 80.14 25.695C80.44 25.485 80.59 25.23 80.59 24.93C80.59 24.69 80.505 24.49 80.335 24.33C80.175 24.17 79.97 24.055 79.72 23.985C79.58 23.935 79.315 23.865 78.925 23.775L78.67 23.715C78.09 23.595 77.595 23.45 77.185 23.28C76.775 23.1 76.455 22.86 76.225 22.56C75.995 22.26 75.88 21.895 75.88 21.465C75.88 21.025 76 20.645 76.24 20.325C76.49 19.995 76.85 19.74 77.32 19.56C77.8 19.38 78.355 19.29 78.985 19.29C79.495 19.29 79.93 19.35 80.29 19.47C80.66 19.59 80.965 19.75 81.205 19.95C81.455 20.14 81.635 20.34 81.745 20.55C81.865 20.76 81.925 20.965 81.925 21.165C81.925 21.365 81.855 21.54 81.715 21.69C81.575 21.84 81.39 21.915 81.16 21.915C80.97 21.915 80.82 21.87 80.71 21.78C80.62 21.7 80.51 21.555 80.38 21.345C80.24 21.055 80.065 20.835 79.855 20.685C79.665 20.525 79.335 20.445 78.865 20.445C78.445 20.445 78.105 20.535 77.845 20.715C77.595 20.885 77.47 21.08 77.47 21.3C77.47 21.43 77.51 21.56 77.59 21.69C77.68 21.79 77.8 21.88 77.95 21.96C78.13 22.04 78.29 22.1 78.43 22.14C78.67 22.21 78.93 22.275 79.21 22.335C79.75 22.455 80.17 22.57 80.47 22.68C80.86 22.81 81.18 22.955 81.43 23.115C81.71 23.305 81.92 23.53 82.06 23.79C82.21 24.05 82.285 24.375 82.285 24.765C82.285 25.225 82.155 25.645 81.895 26.025Z" fill="white"/>
</g>
<g clip-path="url(#clip3_0_32)">
<path d="M22 2.5C33.3218 2.50005 42.5 11.6782 42.5 23C42.4998 34.322 33.3217 43.5 22 43.5C10.6784 43.5 1.50022 34.322 1.5 23C1.5 11.6782 10.6782 2.5 22 2.5Z" fill="#163C86" stroke="#4A6AA7"/>
<path d="M25.045 20.94H22.975V19.575C22.975 19.345 23.04 19.175 23.17 19.065C23.27 18.985 23.395 18.945 23.545 18.945H25.015V16.695L22.99 16.68C22.3 16.68 21.73 16.84 21.28 17.16C20.91 17.42 20.635 17.78 20.455 18.24C20.315 18.61 20.245 19.01 20.245 19.44V20.94H18.955V23.25H20.245V29.805H22.975V23.25H24.805L25.045 20.94Z" fill="white"/>
</g>
</g>
<defs>
<clipPath id="clip0_0_32">
<rect width="158" height="45" fill="white"/>
</clipPath>
<clipPath id="clip1_0_32">
<rect width="45" height="45" fill="white" transform="translate(113)"/>
</clipPath>
<clipPath id="clip2_0_32">
<rect width="45" height="45" fill="white" transform="translate(56)"/>
</clipPath>
<clipPath id="clip3_0_32">
<rect width="44" height="45" fill="white"/>
</clipPath>
</defs>
</svg>
